<svg xmlns="http://www.w3.org/2000/svg" xmlns:xlink="http://www.w3.org/1999/xlink" xmlns:lucid="lucid" width="630.4" height="288.68"><g transform="translate(-538.9999999999783 -2400.0000000000437)" lucid:page-tab-id="0_0"><path d="M540 2591.97v-25.3a6 6 0 0 1 6-6h169.16a6 6 0 0 1 6 6v25.3z" stroke="#000" stroke-width="2" fill="#fff"/><path d="M721.16 2591.97v87.9a6 6 0 0 1-6 6H546a6 6 0 0 1-6-6v-87.9z" stroke="#000" stroke-width="2" fill="none"/><use xlink:href="#a" transform="matrix(1,0,0,1,539.9999999999783,2560.672407407305) translate(59 24.933333333333337)"/><path d="M834.02 2613.86h57v50h-57zM891.02 2613.86h60v50h-60z" fill="#f4d9ff"/><path d="M834.02 2613.86v50M834.02 2613.86h57M834.02 2663.86h57M891.02 2613.86v50M951.02 2613.86v50M891.02 2613.86h60M891.02 2663.86h60" stroke="#000" stroke-width="2" fill="none"/><path d="M541.16 2614.86a6 6 0 0 1 6-6h108a6 6 0 0 1 6 6v48a6 6 0 0 1-6 6h-108a6 6 0 0 1-6-6z" fill="none"/><use xlink:href="#b" transform="matrix(1,0,0,1,541.1616666667567,2608.8575925924815) translate(46.666666666666664 37.44444444444444)"/><path d="M761.5 2460.68v4.18m0 16.74v8.37m0 16.74v8.38m0 16.74v8.38m0 16.74v8.37m0 16.75v8.37m0 16.74v8.37m0 16.74v8.37m0 16.74v8.37m0 16.74v4.18" stroke="#000" stroke-width="4" stroke-linecap="round" fill="none"/><path d="M781.55 2406a6 6 0 0 1 6-6h162.72a6 6 0 0 1 6 6v56.68a6 6 0 0 1-6 6H787.55a6 6 0 0 1-6-6z" fill="none"/><use xlink:href="#c" transform="matrix(1,0,0,1,786.5480538348044,2405.0000000000437) translate(0 36.94444444444444)"/><use xlink:href="#d" transform="matrix(1,0,0,1,786.5480538348044,2405.0000000000437) translate(80 36.94444444444444)"/><path d="M640 2422a6 6 0 0 1 6-6h64.68a6 6 0 0 1 6 6v24.68a6 6 0 0 1-6 6H646a6 6 0 0 1-6-6z" fill="none"/><use xlink:href="#e" transform="matrix(1,0,0,1,645.0000000000434,2421.0000000000437) translate(0 20.944444444444443)"/><path d="M1069.17 2460.68v4m0 16v8m0 16v8m0 16v8m0 16v8m0 16v8m0 16v8m0 16v8m0 16v8m0 16v4" stroke="#000" stroke-width="4" stroke-linecap="round" fill="none"/><path d="M1106.06 2422a6 6 0 0 1 6-6h51.34a6 6 0 0 1 6 6v24.68a6 6 0 0 1-6 6h-51.34a6 6 0 0 1-6-6z" fill="none"/><use xlink:href="#f" transform="matrix(1,0,0,1,1111.0586470384974,2421.0000000000437) translate(0 20.944444444444443)"/><path d="M834.02 2494.68a6 6 0 0 1 6-6h45.66a6 6 0 0 1 6 6v42.8a6 6 0 0 1-6 6h-45.66a6 6 0 0 1-6-6z" stroke="#000" stroke-width="2" fill="#f4d9ff"/><use xlink:href="#g" transform="matrix(1,0,0,1,839.0164068525021,2493.6766666665817) translate(17.333333333333332 29.21527777777778)"/><path d="M684.17 2638.86h129.86" stroke="#3a414a" stroke-width="4" fill="none"/><path d="M684.22 2640.83h-2.36l.3-1.96-.25-2h2.32z" stroke="#3a414a" stroke-width=".05" fill="#3a414a"/><path d="M829.02 2638.86l-13 7.5v-15z" stroke="#3a414a" stroke-width="4" fill="#3a414a"/><path d="M681.16 2638.86c0 5.52-4.48 10-10 10s-10-4.48-10-10c0-5.53 4.48-10 10-10s10 4.47 10 10z" stroke="#000" stroke-width="2"/><path d="M920.5 2627.35v-25.6a6 6 0 0 1 6-6h25.8a6 6 0 0 0 6-6v-7.6" stroke="#000" stroke-width="5" fill="none"/><path d="M923 2630.17l-2.5-.32-2.46.32v-2.9H923z" stroke="#000" stroke-width=".05"/><path d="M958.3 2566.67l7.5 13h-15z" stroke="#000" stroke-width="5"/><path d="M930.5 2640.86c0 5.52-4.47 10-10 10-5.5 0-10-4.48-10-10 0-5.53 4.5-10 10-10 5.53 0 10 4.47 10 10z" stroke="#000" stroke-width="2"/><path d="M862.85 2627.35v-62.38" stroke="#000" stroke-width="5" fill="none"/><path d="M865.32 2630.17l-2.47-.32-2.48.32v-2.9h4.95z" stroke="#000" stroke-width=".05"/><path d="M862.85 2549.48l7.5 13h-15z" stroke="#000" stroke-width="5"/><path d="M872.85 2640.86c0 5.52-4.48 10-10 10s-10-4.48-10-10c0-5.53 4.48-10 10-10s10 4.47 10 10z" stroke="#000" stroke-width="2"/><path d="M930.5 2510.67h57v50h-57zM987.5 2510.67h60v50h-60z" fill="#f4d9ff"/><path d="M930.5 2510.67v50M930.5 2510.67h57M930.5 2560.67h57M987.5 2510.67v50M1047.5 2510.67v50M987.5 2510.67h60M987.5 2560.67h60" stroke="#000" stroke-width="2" fill="none"/><path d="M959.42 2527.76v-25.68a6 6 0 0 1 6-6h122" stroke="#000" stroke-width="5" fill="none"/><path d="M961.9 2530.58l-2.48-.32-2.47.32v-2.9h4.95z" stroke="#000" stroke-width=".05"/><path d="M1102.9 2496.08l-13 7.5v-15z" stroke="#000" stroke-width="5"/><path d="M969.42 2541.27c0 5.52-4.47 10-10 10-5.52 0-10-4.48-10-10 0-5.53 4.48-10 10-10 5.53 0 10 4.47 10 10z" stroke="#000" stroke-width="2"/><path d="M1108.9 2474.68a6 6 0 0 1 6-6h45.66a6 6 0 0 1 6 6v42.8a6 6 0 0 1-6 6h-45.66a6 6 0 0 1-6-6z" stroke="#000" stroke-width="2" fill="#fff7a1"/><use xlink:href="#h" transform="matrix(1,0,0,1,1113.8983872243964,2473.6766666667104) translate(17.333333333333332 29.21527777777778)"/><defs><path d="M447-538c76 0 102 52 102 146V0h-77v-378c-4-59 6-89-41-94-34 0-65 21-92 63V0h-78v-378c-4-59 6-89-41-94-34 0-65 21-92 63V0H51v-527h65l6 62c29-39 54-71 114-73 49 0 81 23 95 70 29-39 56-70 116-70" id="i"/><path d="M478-115c0 42 12 57 43 67l-21 60c-51-7-83-32-96-75-34 44-90 74-165 74C137 13 68-51 69-151c3-149 154-179 324-169 10-103-29-151-125-148-40 0-86 9-137 27l-23-64c153-63 370-47 370 137v253zM260-52c60-1 107-35 133-75v-135c-121-4-236-1-234 110 0 67 34 100 101 100" id="j"/><path d="M300-773c36-1 62 24 62 59s-26 60-62 59c-35 1-61-25-60-59-1-34 25-60 60-59zm67 706h148V0H121v-67h162v-393H126v-67h241v460" id="k"/><path d="M327-471c-64 0-116 47-143 88V0h-84v-527h72l7 74c34-46 100-84 174-85 99 0 148 52 148 156V0h-84v-320c-1-91-3-151-90-151" id="l"/><g id="a"><use transform="matrix(0.02666666666666667,0,0,0.02666666666666667,0,0)" xlink:href="#i"/><use transform="matrix(0.02666666666666667,0,0,0.02666666666666667,16,0)" xlink:href="#j"/><use transform="matrix(0.02666666666666667,0,0,0.02666666666666667,32,0)" xlink:href="#k"/><use transform="matrix(0.02666666666666667,0,0,0.02666666666666667,48,0)" xlink:href="#l"/></g><path d="M378 11c-91 1-156-55-156-145v-538H60v-67h246v609c-6 82 110 83 175 53l22 61c-33 18-75 27-125 27" id="m"/><path d="M280-58c84 5 156-46 121-126-25-33-62-42-118-58-101-31-180-44-180-152 0-172 283-177 392-86l-38 58c-42-28-84-48-152-48-96-3-135 45-101 108 50 50 205 62 254 112 26 26 43 59 43 104C500 44 180 48 74-60l47-55c38 31 93 57 159 57" id="n"/><g id="b"><use transform="matrix(0.022222222222222223,0,0,0.022222222222222223,0,0)" xlink:href="#m"/><use transform="matrix(0.022222222222222223,0,0,0.022222222222222223,13.333333333333334,0)" xlink:href="#n"/></g><path d="M93-693h164v563h300L541 0H93v-693" id="o"/><path d="M300-549c163-2 258 116 258 282 0 171-91 285-258 284C133 18 40-95 42-266s89-279 258-283zm0 117c-81 0-94 69-95 166 2 98 14 167 95 167s93-71 95-168c-1-96-14-165-95-165" id="p"/><path d="M352-108c52-2 81-21 118-45l70 100c-47 39-113 70-197 70C169 14 69-89 69-262c0-174 103-283 277-287 87 1 143 25 194 67l-68 95c-39-27-78-40-119-40-79 0-119 55-119 165-1 98 32 151 118 154" id="q"/><path d="M517-153c0 38 8 53 35 64L519 15c-63-7-105-26-130-70-36 43-99 72-174 72C111 20 34-50 35-150c3-153 155-192 330-181 5-70-27-100-105-101-47 1-106 14-146 28L78-509c57-22 135-39 207-40 155 0 232 63 232 188v208zM269-96c41-1 82-27 96-58v-87c-92-6-167 15-167 80 0 42 27 65 71 65" id="r"/><path d="M375 17c-126 1-186-78-186-204v-447H33v-108h314v575c-5 71 92 68 144 43l37 106c-43 23-94 35-153 35" id="s"/><g id="c"><use transform="matrix(0.022222222222222223,0,0,0.022222222222222223,0,0)" xlink:href="#o"/><use transform="matrix(0.022222222222222223,0,0,0.022222222222222223,13.333333333333334,0)" xlink:href="#p"/><use transform="matrix(0.022222222222222223,0,0,0.022222222222222223,26.666666666666668,0)" xlink:href="#q"/><use transform="matrix(0.022222222222222223,0,0,0.022222222222222223,40,0)" xlink:href="#r"/><use transform="matrix(0.022222222222222223,0,0,0.022222222222222223,53.333333333333336,0)" xlink:href="#s"/></g><path d="M561-482c0 102-62 159-138 190L604 0H418L268-265h-46V0H58v-693h218c173 0 281 52 285 211zm-169 0c0-91-75-101-170-96v200c99 7 170-7 170-104" id="t"/><path d="M305-549c182 0 265 135 246 330H207c9 143 167 146 264 77l63 86c-49 43-122 73-212 73C144 15 46-88 46-265c0-168 91-284 259-284zm0 106c-69 3-95 54-100 128h195c-1-85-33-128-95-128" id="u"/><path d="M292-548c116 0 174-24 250-68l36 116c-35 14-86 21-153 21 60 28 103 58 103 137 0 138-138 196-287 172-10 4-17 17-17 30 2 51 95 29 146 32 111 6 202 49 202 154 0 133-128 177-284 176-152-2-254-28-257-171h140c0 65 52 65 121 67 74-1 123-6 123-61 0-66-93-53-161-53C163 4 90-26 90-101c0-47 27-81 59-101-59-33-94-70-94-152 0-131 102-194 237-194zm4 103c-52-1-82 37-81 89-1 54 30 91 81 91 55 0 82-35 81-93 0-58-27-87-81-87" id="v"/><path d="M299-809c52-2 94 38 93 89 1 52-40 90-93 89-52 2-95-38-94-89-1-51 42-91 94-89zm95 701h136V0H86v-108h150v-315H91v-108h303v423" id="w"/><path d="M321-432c-45 0-66 30-93 61V0H70v-531h138l11 61c43-46 85-77 165-79 94-1 146 63 146 159V0H372v-344c-2-57-3-88-51-88" id="x"/><g id="d"><use transform="matrix(0.022222222222222223,0,0,0.022222222222222223,0,0)" xlink:href="#t"/><use transform="matrix(0.022222222222222223,0,0,0.022222222222222223,13.333333333333334,0)" xlink:href="#u"/><use transform="matrix(0.022222222222222223,0,0,0.022222222222222223,26.666666666666668,0)" xlink:href="#v"/><use transform="matrix(0.022222222222222223,0,0,0.022222222222222223,40,0)" xlink:href="#w"/><use transform="matrix(0.022222222222222223,0,0,0.022222222222222223,53.333333333333336,0)" xlink:href="#p"/><use transform="matrix(0.022222222222222223,0,0,0.022222222222222223,66.66666666666667,0)" xlink:href="#x"/></g><path d="M568-203C568-51 446 15 286 17 171 17 80-16 12-83l83-92c53 47 115 70 187 70 62 1 115-27 115-85 0-74-50-78-125-103-80-27-139-54-173-87s-51-76-51-129c-1-238 381-252 509-112l-77 89c-41-34-92-54-159-58-71-4-129 45-91 105 33 31 69 39 129 59 122 41 209 80 209 223" id="y"/><path d="M327-181c-9 94 114 82 169 49l52 101C498 1 440 17 374 17c-132 1-205-70-205-198v-241H58v-109h111v-115l158-19v134h171l-16 109H327v241" id="z"/><path d="M228 0H70v-742l158-17V0zm171-296L588 0H408L234-291l175-240h165" id="A"/><g id="e"><use transform="matrix(0.022222222222222223,0,0,0.022222222222222223,0,0)" xlink:href="#y"/><use transform="matrix(0.022222222222222223,0,0,0.022222222222222223,13.333333333333334,0)" xlink:href="#z"/><use transform="matrix(0.022222222222222223,0,0,0.022222222222222223,26.666666666666668,0)" xlink:href="#r"/><use transform="matrix(0.022222222222222223,0,0,0.022222222222222223,40,0)" xlink:href="#q"/><use transform="matrix(0.022222222222222223,0,0,0.022222222222222223,53.333333333333336,0)" xlink:href="#A"/></g><path d="M384-292H216V0H52v-693h164v266h168v-266h164V0H384v-292" id="B"/><path d="M364-549c149 3 194 121 194 282 0 153-58 277-204 284-51 0-93-18-126-55v243L70 222v-753h140l7 59c34-43 81-75 147-77zm31 284c-3-99-6-167-80-167-33 0-62 21-87 62v224c20 27 38 47 78 47 76 0 88-72 89-166" id="C"/><g id="f"><use transform="matrix(0.022222222222222223,0,0,0.022222222222222223,0,0)" xlink:href="#B"/><use transform="matrix(0.022222222222222223,0,0,0.022222222222222223,13.333333333333334,0)" xlink:href="#u"/><use transform="matrix(0.022222222222222223,0,0,0.022222222222222223,26.666666666666668,0)" xlink:href="#r"/><use transform="matrix(0.022222222222222223,0,0,0.022222222222222223,40,0)" xlink:href="#C"/></g><path d="M517-68V0H120v-68h169v-529l-157 95-37-59 205-128h74v621h143" id="D"/><use transform="matrix(0.022222222222222223,0,0,0.022222222222222223,0,0)" xlink:href="#D" id="g"/><path d="M300-700c172 0 225 159 225 355 0 197-53 356-225 356S75-148 75-345c0-196 53-355 225-355zM163-345c0 192 46 288 137 288s137-96 137-288c0-191-46-287-137-287s-137 96-137 287zm137-65c36-1 67 30 66 65 1 36-30 67-66 66-36 1-66-30-65-66-1-35 29-66 65-65" id="E"/><use transform="matrix(0.022222222222222223,0,0,0.022222222222222223,0,0)" xlink:href="#E" id="h"/></defs></g></svg>